<?xml version="1.0" encoding="UTF-8" standalone="no"?>
<svg
        version="1.1"
        viewBox="0 0 952 1080"
        width="952"
        height="1080"
        id="svg6"
        xmlns="http://www.w3.org/2000/svg"
>
    <defs
            id="defs6"/>
    <path
            transform="translate(399,162)"
            d="m0 0h364l15 4 11 6 11 9 8 10 8 14 5 13 3 14 1 9v59l-4 4h-110v462l-2 17-4 15-6 13-7 12-12 13-9 8-13 8-15 7-14 4-6 1-50 1h-298l-29-1-12-3-16-8-9-7-10-10-9-14-6-12-6-20-2-12v-159l2-2h15l9 2 10 5 13 11 13 12 4-1 10-10 8-7 8-6 8-4 9-2h13v-357l4-20 6-16 8-14 8-10 8-9 16-12 17-9 15-5zm3 14-15 2-16 5-14 7-11 8-10 9-9 12-6 10-6 16-3 16-1 517-3 18-5 16-8 16-8 10-6 7-6 4v2h318l27-1 17-4 16-7 13-9 12-12 9-14 5-12 4-17 1-532 3-21 5-16 8-15 11-12 1-3zm353 2-10 3-10 6-10 10-7 12-5 15-2 11v54l13 1h86l1-1v-43l-2-17-5-16-7-13-8-10-11-8-7-3-5-1zm-565 453v147l4 18 5 13 8 14 9 10 8 7 10 5 5 1h13l10-4 9-6 8-8 8-13 5-11 4-13 2-14v-145l-1-1h-11l-9 3-10 8-8 8-8 7-6 5-2 1h-6l-6-4-11-10-11-9-10-7z"
            id="path1"/>
    <path
            transform="translate(443,220)"
            d="m0 0h77l12 3 8 5 16 15 13 12 9 8 30 1 16 2 11 4 10 6 9 9 6 11 2 8v31l-5 10-8 6-6 2-11 1-5 12-9 10-10 6-7 2h-17l-11-4-9-6-8-10-4-10h-92l-4 10-7 9-8 6-9 4-4 1h-17l-13-5-12-11-5-10-1-5h-12l-9-3-7-7-3-6-1-5v-48l3-9 7-7 7-3 6-1 26-1 10-11 7-8 12-14 8-7zm3 18-5 3-7 7-7 8-9 10-9 11-7 4-31 1-5 4v44l3 5 3 1h7l5-12 7-9 10-7 7-3 5-1h13l13 4 11 8 7 11 3 8h92l5-12 6-8 8-6 9-4 5-1h14l10 3 10 6 6 7 5 10 2 5h8l4-4v-24l-4-10-8-8-11-5-3-1-12-1-31-1-9-4-16-15-8-7-13-12-7-4-4-1zm-31 83-9 4-7 8-2 5v11l5 10 9 6 2 1h12l9-4 6-7 3-10-2-11-6-8-7-4-4-1zm172 0-8 3-8 9-2 6v8l3 8 6 7 8 4h11l7-3 7-6 3-7v-14l-5-8-5-4-7-3z"
            id="path2"/>
    <path
            transform="translate(506,640)"
            d="m0 0h26l17 4 12 6v30l-5-2-15-8-9-3-5-1h-15l-10 3-9 6-7 8-5 11-2 5h53l-2 10-3 7h-51v20h51l-1 8-3 8h-44l4 12 7 10 8 6 13 4h13l13-3 15-8 8-6h2v31l-8 5-13 5-11 2h-24l-17-4-16-8-8-6-9-9-8-14-5-15v-2h-21l2-9 3-7 12-1 1-19h-16l-1-4 4-12 1-1h16l1-7 6-15 8-12 10-10 13-8 13-5z"
            id="path3"/>
    <path
            transform="translate(364,585)"
            d="m0 0h274l3 4-1 7-4 3h-271l-5-5 1-7z"
            id="path4"/>
    <path
            transform="translate(364,515)"
            d="m0 0h273l4 5-1 6-3 3h-273l-4-5v-5z"
            id="path5"/>
    <path
            transform="translate(364,446)"
            d="m0 0h273l3 3 1 5-3 5-2 1h-272l-4-4v-6z"
            id="path6"/>
    <path
            style="fill:#cde6fd;fill-opacity:1;stroke-width:0.931035"
            d="m 275.59773,849.8387 c 0.006,-0.40439 1.45106,-1.66758 3.21049,-2.80709 4.75676,-3.08075 16.50575,-18.27022 20.85579,-26.96303 2.09755,-4.1916 5.05545,-11.94246 6.57312,-17.22414 5.9708,-20.7792 5.59826,-2.87192 5.9524,-286.1203 0.35682,-285.38995 -0.15494,-262.75942 6.32682,-279.77586 8.19435,-21.51244 24.64977,-39.42412 46.01254,-50.08454 8.66798,-4.32548 20.39252,-8.02146 29.94255,-9.43892 4.54664,-0.67483 58.56804,-0.99379 168.31725,-0.99379 153.64078,0 161.57809,0.0805 160.73942,1.62931 -0.48523,0.89613 -3.14758,4.14311 -5.91634,7.21552 -6.47935,7.18996 -11.96673,17.26831 -15.46115,28.39655 -5.88233,18.73278 -5.5954,5.04564 -6.21584,296.50751 -0.55187,259.24347 -0.60664,265.49966 -2.39195,273.25863 -4.72735,20.54492 -16.93521,38.59784 -34.30847,50.73516 -7.09159,4.95434 -19.44566,10.46805 -29.85505,13.32455 l -8.84483,2.42715 -172.47414,0.32426 c -94.86077,0.17835 -172.46895,-0.007 -172.46261,-0.41097 z m 269.32714,-42.86665 c 4.50092,-1.60145 10.15696,-4.12402 12.56897,-5.60572 l 4.38547,-2.69399 0.25474,-15.98272 c 0.28747,-18.03536 0.1637,-18.30223 -6.17249,-13.3094 -5.80666,4.57557 -18.94267,11.14175 -25.2719,12.63245 -13.27711,3.12708 -27.42986,0.98896 -36.23428,-5.47408 -5.29826,-3.88927 -10.614,-11.42016 -13.04168,-18.47635 l -1.81914,-5.28743 21.97632,-0.24947 21.97633,-0.24948 1.63699,-4.65517 c 0.90035,-2.56035 1.66947,-6.22629 1.70916,-8.14655 l 0.0722,-3.49138 H 501.82763 476.6897 v -9.77586 -9.77587 h 25.47695 25.47696 l 1.45203,-3.95689 c 0.79862,-2.1763 1.72475,-5.42328 2.05807,-7.21552 0.33332,-1.79224 0.81042,-3.98534 1.06022,-4.87356 0.42222,-1.50128 -1.41019,-1.63232 -26.03755,-1.86206 l -26.49175,-0.24714 3.42672,-7.58344 c 7.22418,-15.98736 20.0326,-24.53725 36.75879,-24.53725 9.27161,0 15.9654,1.96661 28.67015,8.42315 5.99824,3.04831 11.34861,5.54237 11.88972,5.54237 0.65084,0 0.98382,-5.13638 0.98382,-15.17566 v -15.17565 l -7.21551,-3.45382 c -18.53166,-8.87046 -47.45837,-9.7832 -66.38028,-2.09454 -8.38009,3.40514 -18.23372,9.43605 -23.57981,14.43202 -8.73214,8.16022 -20.13474,29.24429 -20.13474,37.23026 v 2.78821 l -8.61207,0.26769 -8.61207,0.2677 -2.1996,6.26918 c -1.3538,3.85856 -1.97349,7.17008 -1.61157,8.61207 0.57043,2.27277 0.82435,2.34288 8.48408,2.34288 h 7.89606 l -0.007,3.02587 c -0.004,1.66422 -0.27371,5.85388 -0.60015,9.31034 l -0.59353,6.28448 h -5.33758 c -3.17062,0 -5.70201,0.47249 -6.23524,1.1638 -1.45242,1.88302 -3.71118,8.30426 -4.42133,12.56896 l -0.65889,3.9569 h 10.24677 10.24676 l 2.50803,7.68103 c 6.33221,19.39287 16.7801,31.86327 34.19213,40.81114 5.24642,2.69608 13.10016,5.8612 17.45275,7.0336 7.06752,1.90369 9.65612,2.1041 24.2069,1.87413 15.55696,-0.24587 16.66284,-0.38906 24.47659,-3.16923 z M 638.9321,597.49138 c 2.48802,-2.77261 2.98878,-8.13453 1.01298,-10.84653 l -1.72094,-2.3622 -137.32759,3.6e-4 c -106.52174,2.7e-4 -137.65841,0.25477 -138.80237,1.13453 -0.81113,0.6238 -1.74263,2.79878 -2.07,4.83329 -0.5117,3.18007 -0.24767,4.06187 1.88173,6.28448 l 2.47695,2.58538 h 136.54358 c 128.86384,0 136.62582,-0.0916 138.00566,-1.62931 z m -0.0248,-69.82759 c 2.67785,-3.03574 2.92317,-7.28618 0.60176,-10.42606 l -2.10058,-2.84118 H 500.54871 363.68898 l -2.15484,2.02436 c -2.70243,2.53881 -2.79331,6.5674 -0.22936,10.16812 l 1.92546,2.70407 h 137.1199 c 129.42216,0 137.20057,-0.0915 138.55712,-1.62931 z m -1.65587,-67.84558 c 3.99753,-1.534 4.94381,-8.88046 1.63443,-12.6889 C 637.54944,445.59139 629.79139,445.5 500.5795,445.5 H 363.68898 l -2.15484,2.02436 c -2.84254,2.67044 -2.90456,7.76448 -0.13047,10.71736 l 2.02436,2.15483 h 136.15812 c 74.88696,0 136.83632,-0.26025 137.66524,-0.57834 z M 436.13082,381.71067 c 10.43533,-4.615 19.1235,-13.4236 22.49918,-22.81106 l 1.66888,-4.64099 h 45.71836 45.71837 l 1.67959,4.67081 c 3.57731,9.94813 13.18739,19.18553 24.27557,23.33415 4.43704,1.66012 6.81983,1.8947 16.56485,1.63083 13.55014,-0.3669 17.21693,-1.80312 26.3673,-10.32759 4.44148,-4.13768 6.43973,-6.9153 8.73927,-12.14787 l 2.9812,-6.78365 7.40092,-0.99089 c 10.2088,-1.36682 16.67738,-5.71967 20.49656,-13.7926 2.56471,-5.42124 2.65387,-6.09706 2.64389,-20.04147 -0.006,-9.08551 -0.47209,-16.15539 -1.25694,-19.0862 -3.96626,-14.81086 -14.90984,-26.44748 -30.85196,-32.8058 -7.12822,-2.843 -23.25455,-4.83428 -39.45612,-4.87206 l -12.45613,-0.029 -3.83698,-3.41399 c -2.11033,-1.8777 -10.81483,-9.86481 -19.34331,-17.74913 -8.52848,-7.88433 -17.37162,-15.51807 -19.65142,-16.96388 -8.00252,-5.07505 -13.43201,-5.63162 -54.93777,-5.63162 -40.95917,0 -42.96086,0.21966 -49.91666,5.47763 -1.73257,1.30966 -10.18886,10.39835 -18.79175,20.19707 l -15.64162,17.81586 -14.7255,0.52041 c -17.69596,0.62537 -21.4769,1.71556 -27.48342,7.92451 -6.99645,7.23225 -7.44474,9.72946 -7.09337,39.51454 0.33677,28.54844 0.45614,29.09673 7.90171,36.29455 4.55635,4.40473 10.05587,6.3244 18.11837,6.3244 5.47444,0 6.40028,0.23566 6.40091,1.62931 0.002,4.1874 5.49199,12.97879 11.77371,18.85344 8.83633,8.26373 13.85393,10.06098 28.37695,10.16435 9.63545,0.0686 11.405,-0.18 16.11736,-2.26402 z"
            id="path8"/>
    <path
            style="fill:#cde6fd;fill-opacity:1;stroke-width:0.931035"
            d="m 370.44869,335.02113 c -3.12263,-0.8346 -3.6217,-4.60357 -3.59185,-27.12528 l 0.0293,-22.06826 2.23315,-1.62361 c 1.81755,-1.32146 5.06089,-1.72704 17.42764,-2.17933 17.94349,-0.65626 20.33529,-1.50619 26.83242,-9.53495 9.17843,-11.34214 26.30882,-29.95159 29.23687,-31.76122 2.99988,-1.85403 4.3618,-1.91814 40.75109,-1.91814 h 37.64748 l 4.52239,2.86802 c 4.36627,2.769 14.29566,11.52602 31.33772,27.63762 10.63198,10.05148 15.35168,12.29416 25.95273,12.33203 4.35258,0.0156 14.10722,0.42947 21.67696,0.91982 12.2623,0.79432 14.49597,1.20899 20.48276,3.80252 8.43004,3.65197 13.83301,8.74794 16.40732,15.47503 1.61075,4.20915 1.9502,7.16021 1.9502,16.95449 0,11.19155 -0.12116,11.97213 -2.15484,13.88267 -1.36624,1.28351 -3.34901,2.02436 -5.41795,2.02436 -3.16366,0 -3.35549,-0.21019 -6.29371,-6.89606 -3.64792,-8.30076 -8.07227,-13.68554 -14.75928,-17.96317 -7.18677,-4.59732 -12.23409,-5.84324 -23.71837,-5.85483 -8.56284,-0.009 -10.71009,0.31188 -15.10258,2.25445 -10.5983,4.68707 -17.73861,12.12188 -22.03853,22.94748 l -2.18941,5.51213 h -45.68253 -45.68252 l -1.22465,-3.49138 c -2.51329,-7.1652 -8.47909,-15.48935 -14.00322,-19.53884 -7.44529,-5.4578 -15.01586,-7.66691 -26.32564,-7.68191 -10.40332,-0.0138 -14.12803,1.10847 -22.59643,6.80838 -6.88071,4.63126 -11.79693,10.78324 -14.98884,18.75648 -2.39127,5.9733 -2.49191,6.07644 -5.82568,5.9703 -1.86581,-0.0594 -4.06719,-0.28836 -4.89196,-0.5088 z"
            id="path9"/>
    <path
            style="fill:#cde6fd;fill-opacity:1;stroke-width:0.931035"
            d="m 407.76023,362.2439 c -6.67039,-4.17235 -10.20851,-10.84049 -10.20851,-19.23953 0,-3.09473 0.48697,-6.54191 1.08216,-7.6604 2.49018,-4.67964 7.12167,-9.36371 11.40852,-11.53804 6.28133,-3.18595 15.88475,-2.80698 21.58735,0.85188 8.36103,5.36454 12.45797,16.79729 9.25004,25.81274 -3.50002,9.83631 -10.92562,14.96048 -21.67969,14.96048 -5.61083,0 -6.93383,-0.36858 -11.43987,-3.18713 z"
            id="path10"/>
    <path
            style="fill:#71818c;fill-opacity:1;stroke-width:0.931035"
            d="m 581.73989,363.54462 c -4.04566,-2.13712 -9.38616,-8.47649 -10.88114,-12.91631 -1.26707,-3.76299 -1.39984,-12.12809 -0.24088,-15.1764 0.45363,-1.19312 2.72947,-4.28779 5.05743,-6.87704 4.82237,-5.36364 8.6367,-6.90712 17.03617,-6.89372 7.3199,0.0117 14.13242,3.79739 18.04499,10.02759 2.3924,3.80954 2.76224,5.29098 2.77757,11.12587 0.0104,3.96926 -0.57876,8.22185 -1.43596,10.3642 -1.57275,3.93069 -6.88339,8.73846 -12.02586,10.88712 -4.66174,1.94779 -14.15074,1.6676 -18.33232,-0.54131 z"
            id="path11"/>
    <path
            style="fill:#71818c;fill-opacity:1;stroke-width:0.931035"
            d="m 718.2931,289.15913 -6.51724,-0.53844 -0.29348,-25.60345 c -0.3212,-28.02132 0.21853,-33.46984 4.59942,-46.4302 10.27158,-30.38737 37.19524,-45.83423 60.17241,-34.52261 8.4241,4.14717 17.98805,13.88584 23.31541,23.74134 8.77679,16.23688 11.72182,33.35979 11.20113,65.12526 l -0.30523,18.62069 -42.82759,0.0729 c -23.55517,0.0401 -45.76034,-0.16937 -49.34483,-0.46552 z"
            id="path12"/>
    <path
            style="fill:#4a535b;fill-opacity:1;stroke-width:0.931035"
            d="m 236.01724,844.96938 c -6.15783,-1.50984 -12.75883,-5.91278 -20.40373,-13.60948 -11.46685,-11.54455 -18.90455,-25.64948 -22.91808,-43.46211 -1.74017,-7.7231 -1.83336,-11.89841 -1.83336,-82.14052 v -74.00382 l 3.02586,0.55499 c 5.74351,1.05346 17.1622,9.10137 30.93005,21.79955 8.22215,7.58335 10.95917,9.25408 15.16019,9.25408 4.51458,0 7.93781,-2.36122 19.89298,-13.72142 16.65172,-15.82302 21.143,-18.31443 32.00816,-17.75557 l 5.58621,0.28733 0.2855,70.29311 c 0.30358,74.74305 0.0326,81.03883 -4.05575,94.22423 -7.52911,24.28239 -20.05189,39.99431 -37.55218,47.11555 -5.16031,2.09984 -14.18136,2.62162 -20.12585,1.16408 z"
            id="path13"/>
    <path
            style="fill:#cde6fd;fill-opacity:1;stroke-width:0.931035"
            d="m 582.82806,363.49968 c -3.25705,-1.36266 -6.33386,-4.35754 -9.44201,-9.19058 -2.33616,-3.63265 -2.66191,-5.01125 -2.66191,-11.26548 0,-6.35791 0.28622,-7.52143 2.65451,-10.79076 3.86568,-5.33642 8.09423,-8.56777 12.03669,-9.19817 1.90518,-0.30463 4.164,-0.69237 5.01959,-0.86164 2.99134,-0.59181 10.51415,1.37976 13.95627,3.65766 1.90927,1.26349 4.57339,4.17768 5.92029,6.47598 2.08114,3.5512 2.44331,5.24909 2.41168,11.30626 -0.0462,8.85475 -1.83867,12.65988 -8.0753,17.14291 -4.17997,3.00465 -5.11625,3.27572 -12.01299,3.47802 -4.11384,0.12067 -8.52691,-0.21872 -9.80682,-0.7542 z"
            id="path14"/>
</svg>
